# xmcd CD database file
#
# Track frame offsets:
#	150
#	19496
#	43629
#	59353
#	85743
#	111155
#	124590
#	145862
#	163777
#	186002
#	202410
#
# Disc length: 2946 seconds
#
# Revision: 0
# Processed by: cddbd v1.5.2PL0 Copyright (c) Steve Scherf et al.
# Submitted via: CDex 1.51
#
DISCID=9e0b800b
DTITLE=Back Door Slam - Roll Away
DYEAR=2007
DGENRE=Blues
TTITLE0=Come Home
TTITLE1=Heavy On My Mind
TTITLE2=Outside Woman Blues
TTITLE3=Gotta Leave
TTITLE4=Stay 
TTITLE5=Too Late 
TTITLE6=Takes A Real Man
TTITLE7=It'll All Come Around
TTITLE8=Too Good For Me 
TTITLE9=Roll Away
TTITLE10=Real Man
EXTD=YEAR: 2007
EXTT0=
EXTT1=
EXTT2=
EXTT3=
EXTT4=
EXTT5=
EXTT6=
EXTT7=
EXTT8=
EXTT9=
EXTT10=
PLAYORDER=
